#!OML:ASF F:\VICON\USERDATA\INSTALL\rory3\rory3.ASF
:FULLY-SPECIFIED
:DEGREES
2011
root 1.63615 9.65201 -5.53904 -198.929 177.564 -178.48
lowerback 28.8434 0.59508 -2.11388
upperback 12.8234 0.358908 2.21689
thorax -1.50833 0.0273518 3.54211
lowerneck -17.602 -0.0101269 -10.6853
upperneck 31.6969 3.6239 -0.0440495
head 13.5526 0.291005 2.41475
rclavicle -7.95139e-016 7.95139e-016
rhumerus -32.7016 30.5802 -79.8895
rradius 98.4901
rwrist 40.7903
rhand -48.1497 17.0886
rfingers 7.12502
rthumb -20.8122 -11.8151
lclavicle -7.95139e-016 7.95139e-016
lhumerus -29.2467 -24.5277 88.0598
lradius 90.0991
lwrist -17.091
lhand -41.1766 8.04189
lfingers 7.12502
lthumb -14.1019 37.5434
rfemur -77.0966 -19.7652 26.9974
rtibia 109.338
rfoot -3.26409 12.4498
rtoes 19.8478
lfemur -76.7188 15.1674 -23.5616
ltibia 107.157
lfoot -7.20961 -18.097
ltoes -2.9667
2012
root 1.63203 9.64848 -5.54171 -198.989 177.434 -178.484
lowerback 28.8163 0.603374 -2.20579
upperback 12.7505 0.348886 2.2286
thorax -1.57738 0.0208235 3.61083
lowerneck -17.3159 -0.00665416 -10.4418
upperneck 31.3986 3.6521 -0.52093
head 13.383 0.285631 2.18038
rclavicle 1.47101e-014 3.02153e-014
rhumerus -32.6885 30.5734 -79.9242
rradius 98.3113
rwrist 40.702
rhand -47.9795 16.8983
rfingers 7.12502
rthumb -20.6487 -12.0233
lclavicle 1.47101e-014 3.02153e-014
lhumerus -29.3159 -24.5025 88.1107
lradius 90.1313
lwrist -17.2676
lhand -40.9323 8.51098
lfingers 7.12502
lthumb -13.8664 38.0287
rfemur -77.0884 -19.9147 26.9341
rtibia 109.381
rfoot -3.1407 12.4566
rtoes 20.3374
lfemur -76.8397 15.0367 -23.7102
ltibia 107.151
lfoot -7.19868 -17.4315
ltoes -3.91538
2013
root 1.62971 9.65131 -5.54387 -199.132 177.375 -178.339
lowerback 28.7282 0.695384 -2.40278
upperback 12.7772 0.417532 2.21398
thorax -1.51158 0.0465857 3.68765
lowerneck -17.1272 -0.0674035 -10.2884
upperneck 31.1698 3.56836 -0.801294
head 13.2627 0.243313 2.02536
rclavicle 4.37326e-015 1.03368e-014
rhumerus -32.7367 30.3412 -79.9299
rradius 98.1651
rwrist 40.8171
rhand -47.9819 17.0792
rfingers 7.12502
rthumb -20.651 -11.8422
lclavicle 4.37326e-015 1.03368e-014
lhumerus -29.2084 -24.6503 88.1379
lradius 90.038
lwrist -17.8539
lhand -40.6328 9.65957
lfingers 7.12502
lthumb -13.5778 39.1968
rfemur -76.9277 -20.0023 26.6943
rtibia 109.407
rfoot -3.10762 12.526
rtoes 20.2577
lfemur -76.7288 14.9928 -23.9415
ltibia 107.11
lfoot -7.50459 -16.7594
ltoes -5.18155
2014
root 1.6267 9.65443 -5.54489 -199.259 177.274 -178.191
lowerback 28.5544 0.731035 -2.64115
upperback 12.8416 0.404654 2.17217
thorax -1.35705 0.0284645 3.7814
lowerneck -17.2214 -0.0526982 -10.2427
upperneck 31.2185 3.61384 -0.866604
head 13.3041 0.25575 2.00102
rclavicle 7.15625e-015 9.54166e-015
rhumerus -32.7415 30.2428 -79.9768
rradius 98.0488
rwrist 40.7736
rhand -48.0361 17.3676
rfingers 7.12502
rthumb -20.7031 -11.5481
lclavicle 7.15625e-015 9.54166e-015
lhumerus -29.0821 -24.5773 88.0095
lradius 90.0022
lwrist -18.395
lhand -40.4077 10.1639
lfingers 7.12502
lthumb -13.3607 39.7156
rfemur -76.7527 -20.1304 26.4516
rtibia 109.421
rfoot -3.13674 12.625
rtoes 20.3019
lfemur -76.6146 14.8607 -24.1407
ltibia 106.974
lfoot -7.88617 -16.2278
ltoes -7.11174
2015
root 1.62502 9.65446 -5.54729 -199.356 177.307 -178.127
lowerback 28.4879 0.76337 -2.7232
upperback 12.8391 0.423439 2.11475
thorax -1.33079 0.0358557 3.75948
lowerneck -17.4244 -0.0301934 -10.1326
upperneck 31.3835 3.69091 -0.984629
head 13.4199 0.274651 1.95306
rclavicle 8.15017e-015 -1.90833e-014
rhumerus -32.6628 30.2156 -80.0326
rradius 97.8475
rwrist 40.6959
rhand -48.0927 17.5755
rfingers 7.12502
rthumb -20.7575 -11.3343
lclavicle 8.15017e-015 -1.90833e-014
lhumerus -29.0469 -24.5142 87.9096
lradius 90.0306
lwrist -18.3775
lhand -40.2961 9.8492
lfingers 7.12502
lthumb -13.2532 39.4079
rfemur -76.6478 -20.1206 26.3706
rtibia 109.422
rfoot -3.11863 12.6443
rtoes 20.4868
lfemur -76.5985 14.8971 -24.2375
ltibia 106.786
lfoot -8.19896 -16.1042
ltoes -8.38611
2016
root 1.62469 9.65565 -5.5515 -199.434 177.271 -178.15
lowerback 28.4375 0.761279 -2.73098
upperback 12.7815 0.420006 2.10907
thorax -1.3729 0.0358573 3.75834
lowerneck -17.4994 -0.0126226 -10.1429
upperneck 31.5291 3.74331 -0.990655
head 13.4964 0.286831 1.96372
rclavicle 9.93923e-016 -2.22639e-014
rhumerus -32.6567 30.1858 -80.0458
rradius 97.6443
rwrist 40.617
rhand -48.2063 17.5728
rfingers 7.12502
rthumb -20.8666 -11.325
lclavicle 9.93923e-016 -2.22639e-014
lhumerus -29.1538 -24.484 88.0078
lradius 89.9948
lwrist -18.4232
lhand -40.2191 9.58136
lfingers 7.12502
lthumb -13.179 39.1448
rfemur -76.5468 -20.174 26.3343
rtibia 109.41
rfoot -3.03228 12.6418
rtoes 20.8243
lfemur -76.5666 14.7654 -24.226
ltibia 106.489
lfoot -8.43506 -16.4037
ltoes -9.38301
2017
root 1.62306 9.65519 -5.55371 -199.56 177.251 -178.251
lowerback 28.4138 0.771946 -2.73722
upperback 12.7162 0.435152 2.15865
thorax -1.43735 0.0436334 3.81215
lowerneck -17.2204 -0.0223013 -10.2577
upperneck 31.44 3.70366 -0.937325
head 13.3973 0.271949 1.99303
rclavicle -4.17448e-015 9.54166e-015
rhumerus -32.7438 30.1409 -80.0911
rradius 97.4903
rwrist 40.5905
rhand -48.103 17.608
rfingers 7.12502
rthumb -20.7674 -11.3006
lclavicle -4.17448e-015 9.54166e-015
lhumerus -29.3246 -24.4776 88.1549
lradius 89.9959
lwrist -18.3862
lhand -40.1334 9.6969
lfingers 7.12502
lthumb -13.0964 39.2657
rfemur -76.3965 -20.2199 26.3759
rtibia 109.4
rfoot -3.04637 12.7134
rtoes 20.4331
lfemur -76.5255 14.6885 -24.1608
ltibia 106.153
lfoot -8.6688 -16.7935
ltoes -10.461
2018
root 1.62104 9.65487 -5.55558 -199.597 177.277 -178.328
lowerback 28.3193 0.786444 -2.71022
upperback 12.6436 0.46189 2.15202
thorax -1.47908 0.0601961 3.78093
lowerneck -17.0286 -0.043944 -10.3208
upperneck 31.3903 3.64722 -0.891765
head 13.3357 0.251385 2.0096
rclavicle -2.38542e-015 2.46493e-014
rhumerus -32.8562 30.0157 -80.2252
rradius 97.3179
rwrist 40.574
rhand -48.0344 17.6792
rfingers 7.12502
rthumb -20.7014 -11.2367
lclavicle -2.38542e-015 2.46493e-014
lhumerus -29.4222 -24.5125 88.1939
lradius 89.9311
lwrist -18.3276
lhand -40.2122 9.81227
lfingers 7.12502
lthumb -13.1723 39.3762
rfemur -76.3647 -20.1921 26.456
rtibia 109.396
rfoot -3.07528 12.6942
rtoes 20.3957
lfemur -76.551 14.6458 -24.0794
ltibia 105.75
lfoot -8.7977 -17.256
ltoes -11.4428
2019
root 1.619 9.65138 -5.55831 -199.649 177.302 -178.496
lowerback 28.2857 0.80202 -2.60373
upperback 12.5678 0.510731 2.18361
thorax -1.55437 0.0903619 3.74008
lowerneck -17.1148 -0.0726602 -10.2949
upperneck 31.5571 3.63141 -0.919129
head 13.4284 0.234098 1.99547
rclavicle 1.43125e-014 -1.74931e-014
rhumerus -32.9157 29.8987 -80.2856
rradius 97.1555
rwrist 40.5412
rhand -48.127 17.694
rfingers 7.12502
rthumb -20.7904 -11.2122
lclavicle 1.43125e-014 -1.74931e-014
lhumerus -29.5119 -24.6162 88.3047
lradius 89.8637
lwrist -18.3278
lhand -40.3244 9.92504
lfingers 7.12502
lthumb -13.2805 39.4819
rfemur -76.3042 -20.1569 26.6321
rtibia 109.377
rfoot -3.1138 12.642
rtoes 20.5206
lfemur -76.6272 14.56 -23.8629
ltibia 105.372
lfoot -8.8921 -17.8745
ltoes -12.2128
2020
root 1.6178 9.65031 -5.55994 -199.735 177.387 -178.638
lowerback 28.2524 0.837272 -2.48494
upperback 12.5372 0.585386 2.17912
thorax -1.58058 0.133317 3.64494
lowerneck -17.2359 -0.0753827 -10.2476
upperneck 31.6818 3.61604 -0.852313
head 13.5063 0.23427 2.01484
rclavicle 2.38542e-015 1.66979e-014
rhumerus -32.9536 29.7457 -80.3854
rradius 96.9997
rwrist 40.6083
rhand -48.1934 17.5823
rfingers 7.12502
rthumb -20.8543 -11.3169
lclavicle 2.38542e-015 1.66979e-014
lhumerus -29.5383 -24.7295 88.3628
lradius 89.8219
lwrist -18.2329
lhand -40.4697 9.84548
lfingers 7.12502
lthumb -13.4205 39.3932
rfemur -76.1839 -20.0777 26.792
rtibia 109.344
rfoot -3.17207 12.594
rtoes 20.5677
lfemur -76.6029 14.5473 -23.6504
ltibia 104.926
lfoot -8.94964 -18.587
ltoes -12.4705
2021
root 1.61882 9.65234 -5.56254 -199.803 177.368 -178.629
lowerback 28.1451 0.841225 -2.51534
upperback 12.543 0.582439 2.12624
thorax -1.5245 0.131536 3.60451
lowerneck -17.2998 -0.0728083 -10.2777
upperneck 31.7097 3.61358 -0.772286
head 13.5285 0.23822 2.05236
rclavicle -1.96797e-014 1.19271e-014
rhumerus -32.906 29.6464 -80.4574
rradius 96.8295
rwrist 40.6171
rhand -48.1477 17.4974
rfingers 7.12502
rthumb -20.8103 -11.4066
lclavicle -1.96797e-014 1.19271e-014
lhumerus -29.6835 -24.7403 88.4213
lradius 89.9071
lwrist -17.9299
lhand -40.6224 9.46438
lfingers 7.12502
lthumb -13.5678 39.0023
rfemur -76.0848 -20.1248 26.742
rtibia 109.32
rfoot -3.21022 12.6435
rtoes 20.1579
lfemur -76.5914 14.441 -23.6688
ltibia 104.435
lfoot -8.81375 -19.185
ltoes -12.4173
2022
root 1.6199 9.65382 -5.56555 -199.825 177.26 -178.435
lowerback 28.0191 0.844981 -2.75293
upperback 12.4853 0.527175 2.03456
thorax -1.52626 0.0987138 3.65556
lowerneck -17.37 -0.0543531 -10.418
upperneck 31.8266 3.64927 -0.611159
head 13.5847 0.251876 2.14811
rclavicle 3.57812e-015 -1.35174e-014
rhumerus -32.9517 29.6787 -80.5689
rradius 96.6109
rwrist 40.5467
rhand -48.1838 17.2833
rfingers 7.12502
rthumb -20.845 -11.6168
lclavicle 3.57812e-015 -1.35174e-014
lhumerus -29.788 -24.6322 88.4835
lradius 89.8567
lwrist -17.8599
lhand -40.6724 9.28663
lfingers 7.12502
lthumb -13.6159 38.8213
rfemur -76.0848 -20.2376 26.4742
rtibia 109.327
rfoot -3.1163 12.7091
rtoes 20.3448
lfemur -76.6717 14.2902 -23.9518
ltibia 103.94
lfoot -8.63986 -19.5931
ltoes -13.1999
2023
root 1.62143 9.65412 -5.56747 -199.919 177.295 -178.464
lowerback 27.9639 0.839311 -2.75212
upperback 12.4413 0.519345 2.00528
thorax -1.55007 0.0966862 3.62476
lowerneck -17.3375 0.0127062 -10.418
upperneck 31.8219 3.74059 -0.60672
head 13.5698 0.292683 2.16386
rclavicle -8.54774e-015 -1.11319e-014
rhumerus -33.0023 29.6289 -80.6179
rradius 96.4436
rwrist 40.4498
rhand -47.9676 17.8482
rfingers 7.12502
rthumb -20.6373 -11.0747
lclavicle -8.54774e-015 -1.11319e-014
lhumerus -29.8162 -24.5755 88.5158
lradius 89.7353
lwrist -17.8396
lhand -40.8476 9.13911
lfingers 7.12502
lthumb -13.7848 38.6624
rfemur -75.957 -20.2341 26.4756
rtibia 109.315
rfoot -3.11966 12.7414
rtoes 20.2118
lfemur -76.6329 14.2675 -23.9489
ltibia 103.412
lfoot -8.73556 -19.8887
ltoes -14.3344
2024
root 1.62232 9.65229 -5.5667 -199.995 177.287 -178.311
lowerback 27.9094 0.91271 -2.93529
upperback 12.4312 0.565471 1.92513
thorax -1.53927 0.115206 3.62875
lowerneck -17.3751 -0.0155614 -10.3672
upperneck 31.7678 3.69772 -0.643257
head 13.5588 0.277347 2.13363
rclavicle 9.93923e-015 1.03368e-014
rhumerus -32.9752 29.4444 -80.6549
rradius 96.2706
rwrist 40.2624
rhand -47.5244 18.6091
rfingers 7.12502
rthumb -20.2114 -10.3594
lclavicle 9.93923e-015 1.03368e-014
lhumerus -29.6878 -24.6276 88.4817
lradius 89.5876
lwrist -17.8291
lhand -40.8964 9.11235
lfingers 7.12502
lthumb -13.8318 38.6325
rfemur -75.9025 -20.2294 26.2993
rtibia 109.343
rfoot -3.10317 12.7345
rtoes 20.0665
lfemur -76.4793 14.2042 -24.1008
ltibia 102.803
lfoot -8.83717 -20.1119
ltoes -14.6171
